<?xml version="1.0" encoding="utf-8"?>
<!-- Generator: Adobe Illustrator 24.0.1, SVG Export Plug-In . SVG Version: 6.00 Build 0)  -->
<svg version="1.1" id="Layer_1" xmlns="http://www.w3.org/2000/svg" xmlns:xlink="http://www.w3.org/1999/xlink" x="0px" y="0px"
	 viewBox="0 0 702.9 127.7" style="enable-background:new 0 0 702.9 127.7;" xml:space="preserve">
<style type="text/css">
	.st0{fill:#3A3996;}
	.st1{fill:#5F61AC;}
	.st2{fill:#2E2D75;}
	.st3{fill:#BDB7DB;}
	.st4{fill:#141739;}
</style>
<g>
	<g>
		<rect x="1" y="46.7" class="st0" width="88.6" height="22.2"/>
		<rect x="23.2" y="76.3" class="st1" width="88.5" height="21.8"/>
		<rect x="23.2" y="17.5" class="st2" width="88.5" height="21.8"/>
		
			<rect x="34.2" y="72.3" transform="matrix(-1.836970e-16 1 -1 -1.836970e-16 161.9136 71.266)" class="st3" width="22.2" height="88.6"/>
	</g>
	<g>
		<path class="st4" d="M368.9,67.1c0-18.4-9.2-28.7-19.7-32.4c-18-6.6-36.1,1.8-43,9L318,62c2.7-12.4,11.5-21.7,20-21.7
			c5.9,0,9.2,5.8,9.1,13.2L347,67c-32.5,0-44.8,13.9-45.6,26.2c-0.8,11.9,7.9,19.6,19.9,19.6c11.4,0,20.1-5.2,25.8-11.3l-0.1,11.1
			l32.1-9.2l-10.2-13.1V67.1z M347.1,95.2c-4,2.4-7.6,3.7-11.8,3.7c-7.4,0-11.4-4.4-11.4-10.3c0-6.5,5.7-14.8,23.2-15.6V95.2z"/>
		<path class="st4" d="M271.2,89.9V44.8h20.6v-7.4h-20.6V17.2l-35.6,27.4h13.5v45.3c0,15.3,8.2,23,20.3,23
			c11.3,0,21.4-5.8,25.3-15.2c-4.7,3.3-8.9,4.1-13.2,4.1C274.9,101.7,271.2,98,271.2,89.9z"/>
		<path class="st4" d="M205.2,62.8c-11.1-4.8-16.4-9.6-16.4-15.2c0-5.3,4.2-9,10.3-9c13.9,0,19.3,15.8,21.1,19.9l8.8-14.3
			c-7.1-7-18.9-11.9-27.8-11.9c-16.4,0-30.7,9.1-30.7,23c0,9,3.8,17,21,25.2c12.4,5.3,19.1,9.9,19.1,15.6c0,5.1-4.5,8.7-12.2,8.7
			c-13.6,0-20.8-13.4-22-21.3l-9.3,15.3c0,0,5.1,6,12,9.7c4.8,2.5,11.1,4.5,19.3,4.5c18.6,0,33.7-10.4,33.7-24.7
			C232.3,77.4,222.4,70.3,205.2,62.8z"/>
		<path class="st4" d="M428.8,95.2C413,95,401.5,83.5,401.5,64.3c0-15.6,7.7-24.1,18.4-24.1c7.1,0,16.6,7.4,20.7,25.5
			c0,0,7.1-11.3,12.6-20.1c-8.4-8.8-18.9-13.6-31.3-13.6c-25.2,0-41,20.1-41,40.3c0,22.8,15.9,40.6,39.5,40.6
			c20.2,0,31.9-12.8,33-29.8C448,91.4,438.7,95.3,428.8,95.2z"/>
		<path class="st4" d="M586.8,31.8c-21.7,0-37.5,16.4-37.5,40.2c0,22.8,14.9,40.9,38.5,40.9c21.7,0,32.1-12.9,32.8-30.6
			c-5.4,8.4-14.4,12.9-24.3,12.9c-12.9,0-26.8-9.9-27.5-29.5h53.1C621.8,46,605.6,31.8,586.8,31.8z M568.9,58.5
			c1.5-13.2,7.8-18.6,15.9-18.6c10.3,0,14.6,9.3,14.6,18.6H568.9z"/>
		<path class="st4" d="M686.8,32.3c-10.4,0-18.2,7.4-23.9,16.4V29.3l-34,15.2l11.9,6.4v47.9L629,111h44.6L663,99.6V65.8
			c0-11.3,9.8-25.7,28-9.9l11.8-18.8C702.7,37.1,696.8,32.3,686.8,32.3z"/>
		<polygon class="st4" points="546.4,34.1 507.8,34 507.8,55.6 488.3,71.3 488.3,2.3 454.3,17.5 466.2,23.9 466.2,98.7 454.3,111 
			498.9,111 488.3,100.9 488.3,80.3 493.1,76.6 515.4,101.4 505.2,111 552.6,111 510.2,63.4 		"/>
	</g>
</g>
</svg>
